<?xml version="1.0" encoding="UTF-8"?>
<svg id="Layer_2" data-name="Layer 2" xmlns="http://www.w3.org/2000/svg" viewBox="0 0 548.46 187.47">
  <defs>
    <style>
      .cls-1 {
        fill: #fff;
      }

      .cls-2 {
        fill: #ff3177;
      }
    </style>
  </defs>
  <g id="Layer_3" data-name="Layer 3">
    <path class="cls-2" d="M112.86,64.77c7.39,5.77,14.78,11.53,22.16,17.3,2.88-2.41,14.31-12.51,14.25-27.76-.05-11.55-6.67-19.79-9.5-22.93-13.72-10.46-27.44-20.92-41.16-31.38-14.25,10.86-28.49,21.72-42.74,32.59-2.76,3.01-7.86,9.46-8.97,18.51-1.53,12.41,5.45,21.59,7.92,24.54,20.05,16.09,40.1,32.18,60.16,48.28,1.09,1.15,2.56,3.06,3.17,5.63,1.36,5.78-2.75,10.28-3.69,11.26-5.28,3.89-10.55,7.78-15.83,11.67-4.93-4.02-9.85-8.05-14.78-12.07-1.2-1.14-3.82-3.97-4.22-8.05-.65-6.52,4.89-10.96,5.8-11.67-7.92-5.9-15.83-11.8-23.75-17.7-3.52,2.92-11.34,10.21-13.72,21.32-3.34,15.64,6.55,27.44,8.97,30.17,14.07,11,28.14,21.99,42.21,32.99,14.25-11.26,28.49-22.53,42.74-33.79,2.35-2.56,10.13-11.68,8.97-24.54-1.18-13.17-10.94-21.51-13.72-23.74-9.52-6.95-19.22-14.32-29.02-22.13-8.71-6.93-16.97-13.78-24.8-20.52-1.11-.83-3.32-2.71-4.22-5.63-1.54-5.01,2.02-8.99,2.64-9.66,5.28-4.43,10.55-8.85,15.83-13.28,5.98,5.23,11.96,10.46,17.94,15.69.72,1.25,1.76,3.53,1.58,6.44-.26,4.37-3.09,7.37-4.22,8.45Z"/>
    <path class="cls-1" d="M0,92.53c8.98-9.12,17.97-18.24,26.95-27.36,5.9,5.9,11.8,11.8,17.7,17.7-3.62,3.22-7.24,6.44-10.86,9.66,3.75,3.49,7.51,6.97,11.26,10.46-6.03,5.77-12.07,11.53-18.1,17.3-8.98-9.25-17.97-18.51-26.95-27.76Z"/>
    <path class="cls-1" d="M171.14,65.98c9.12,9.25,18.24,18.51,27.36,27.76-9.25,9.25-18.51,18.51-27.76,27.76-5.63-5.63-11.26-11.26-16.9-16.9,3.35-3.75,6.7-7.51,10.06-11.26-3.22-3.35-6.44-6.7-9.66-10.06,5.63-5.77,11.26-11.53,16.9-17.3Z"/>
    <g>
      <path class="cls-1" d="M271.64,139.74c-17.3,0-29.43-2.04-36.38-6.11-6.95-4.08-10.43-12.41-10.43-25.01h28.73c0,6.55,1.71,10.16,5.14,10.84,3.42.67,8.11,1.01,14.06,1.01,4.5,0,8.09-.21,10.76-.64,2.67-.42,4.01-2.79,4.01-7.09,0-3.9-2.16-6.15-6.49-6.75-4.33-.6-10.56-1.22-18.71-1.88-10.65-.8-19.59-3.1-26.81-6.9-7.23-3.8-10.84-10.9-10.84-21.3,0-9.6,3.55-16.42,10.65-20.47,7.1-4.05,18.15-6.08,33.15-6.08,17.95,0,30.39,2.1,37.31,6.3,6.92,4.2,10.39,12.38,10.39,24.53h-28.57c0-6.5-1.78-10.08-5.33-10.73-3.55-.65-8.43-.97-14.62-.97-4.85,0-8.41.24-10.69.71-2.28.48-3.41,2.89-3.41,7.24,0,3.8,2.45,5.98,7.35,6.52,4.9.55,11.35,1.2,19.35,1.95,10.35.8,18.94,2.89,25.76,6.26,6.83,3.38,10.24,9.91,10.24,19.61,0,10.9-3.19,18.45-9.56,22.65s-18.06,6.3-35.06,6.3Z"/>
      <path class="cls-1" d="M351.89,21.54l.08,22.35h-29.93l-.07-22.35h29.92ZM322.04,50.04h29.93v88.95h-29.93V50.04Z"/>
      <path class="cls-1" d="M404.46,115.07c-6.6,0-12.85-.67-18.75-2.03-.65.9-.98,1.73-.98,2.48,0,1.7,1.82,2.95,5.48,3.75,5.55,1.15,13.12,1.72,22.73,1.72,15.15,0,24.92,1.99,29.32,5.96,4.4,3.97,6.6,9.99,6.6,18.04,0,10.95-3.44,18.35-10.31,22.2-6.88,3.85-21.16,5.77-42.86,5.77-18.95,0-30.05-2.2-33.3-6.6-3.25-4.4-4.88-8.2-4.88-11.4,0-3.45,1.22-7.1,3.68-10.95h22.12c-.6,1.15-.9,2.1-.9,2.85,0,.9.59,5.15,1.76,5.6,1.17.45,4.7,2.12,11.45,2.12,8.9,0,14.72-.32,18.9-1.97,3.46-1.37,5.99-5.17,5.99-7.32,0-1.8-1.64-2.89-4.91-3.26-3.28-.38-13.54-.56-30.79-.56-13.7,0-21.83-3.8-24.38-11.4-.6-1.75-.9-3.57-.9-5.48,0-5.7,2.7-11.95,8.1-18.75-5.75-4.3-8.62-10.52-8.62-18.67,0-15.65,4.38-25.82,13.12-30.52,8.75-4.7,18.75-7.05,30-7.05h48.68v21.83h-14.34s6.33,1.21,5.71,22.95c-.39,13.79-12.58,20.7-37.73,20.7ZM402.81,71.42c-4.3,0-7.79.36-10.46,1.09-2.68.73-4.01,4.56-4.01,11.51,0,5.65,1.29,8.86,3.86,9.64,2.57.78,6.49,1.16,11.74,1.16,7.85,0,11.77-3.33,11.77-9.98v-.6c-.25-5.9-2.25-9.78-6-12.43l-6.9-.39Z"/>
      <path class="cls-1" d="M523.04,124.14c-2.9,3.9-5.25,6.71-7.05,8.44-1.8,1.72-3.94,3.12-6.41,4.2-2.48,1.08-5.3,1.89-8.48,2.44-3.18.55-6.61.83-10.31.83-3.05,0-6.3-.25-9.75-.75-3.45-.5-6.73-1.34-9.83-2.51-3.1-1.17-5.88-2.82-8.32-4.95-2.45-2.12-4.38-4.7-5.78-7.73-1.4-3.02-2.1-7.01-2.1-11.96,0-4.55.67-8.19,2.02-10.91,1.35-2.72,3.2-5.17,5.55-7.35,2.35-2.17,5.22-3.9,8.62-5.17,3.4-1.28,7.05-2.22,10.95-2.85,3.9-.62,7.67-.94,11.32-.94h25.05v-2.92c0-4.05-.7-7.15-2.1-9.3-1.4-2.15-3.36-3.4-5.89-3.75-2.53-.35-5.71-.53-9.56-.53-3.5,0-6.43.14-8.77.41-2.35.28-4.36,1.38-6.04,3.3-1.68,1.92-2.59,4.91-2.74,8.96h-28.12c.3-7.85,2.17-13.89,5.62-18.11,3.45-4.22,7.4-7.22,11.85-9,4.45-1.77,8.86-3.01,13.24-3.71,4.37-.7,9.74-1.05,16.09-1.05,11.45,0,20.06,1.04,25.84,3.11,5.77,2.08,10.64,5.56,14.59,10.46,3.95,4.9,5.92,11.9,5.92,21v55.2h-29.25v-3.53c0-.9.14-1.81.43-2.73.03-.1.06-.2.1-.3.32-.93,3.3-8.29,3.3-8.29ZM497.84,120.92c2,0,4.09-.15,6.26-.45,2.17-.3,4.37-.8,6.6-1.5,2.22-.7,4-1.59,5.32-2.66,1.32-1.07,2.11-2.29,2.36-3.64l.75-11.17h-21.98c-1.7,0-3.26.11-4.69.34-1.43.22-2.68.66-3.75,1.31-1.08.65-1.91,1.62-2.51,2.92-.6,1.3-.9,3.05-.9,5.25,0,2.35.36,4.19,1.09,5.51.72,1.33,1.7,2.28,2.93,2.85,1.22.58,2.57.93,4.05,1.05,1.47.13,2.96.19,4.46.19Z"/>
    </g>
  </g>
</svg>