<?xml version="1.0" encoding="UTF-8"?>
<svg id="Layer_2" data-name="Layer 2" xmlns="http://www.w3.org/2000/svg" viewBox="0 0 198.5 187.47">
  <defs>
    <style>
      .cls-1 {
        fill: #fff;
      }

      .cls-2 {
        fill: #ff3177;
      }
    </style>
  </defs>
  <g id="Layer_3" data-name="Layer 3">
    <path class="cls-2" d="M112.86,64.77c7.39,5.77,14.78,11.53,22.16,17.3,2.88-2.41,14.31-12.51,14.25-27.76-.05-11.55-6.67-19.79-9.5-22.93-13.72-10.46-27.44-20.92-41.16-31.38-14.25,10.86-28.49,21.72-42.74,32.59-2.76,3.01-7.86,9.46-8.97,18.51-1.53,12.41,5.45,21.59,7.92,24.54,20.05,16.09,40.1,32.18,60.16,48.28,1.09,1.15,2.56,3.06,3.17,5.63,1.36,5.78-2.75,10.28-3.69,11.26-5.28,3.89-10.55,7.78-15.83,11.67-4.93-4.02-9.85-8.05-14.78-12.07-1.2-1.14-3.82-3.97-4.22-8.05-.65-6.52,4.89-10.96,5.8-11.67-7.92-5.9-15.83-11.8-23.75-17.7-3.52,2.92-11.34,10.21-13.72,21.32-3.34,15.64,6.55,27.44,8.97,30.17,14.07,11,28.14,21.99,42.21,32.99,14.25-11.26,28.49-22.53,42.74-33.79,2.35-2.56,10.13-11.68,8.97-24.54-1.18-13.17-10.94-21.51-13.72-23.74-9.52-6.95-19.22-14.32-29.02-22.13-8.71-6.93-16.97-13.78-24.8-20.52-1.11-.83-3.32-2.71-4.22-5.63-1.54-5.01,2.02-8.99,2.64-9.66,5.28-4.43,10.55-8.85,15.83-13.28,5.98,5.23,11.96,10.46,17.94,15.69.72,1.25,1.76,3.53,1.58,6.44-.26,4.37-3.09,7.37-4.22,8.45Z"/>
    <path class="cls-1" d="M0,92.53c8.98-9.12,17.97-18.24,26.95-27.36,5.9,5.9,11.8,11.8,17.7,17.7-3.62,3.22-7.24,6.44-10.86,9.66,3.75,3.49,7.51,6.97,11.26,10.46-6.03,5.77-12.07,11.53-18.1,17.3-8.98-9.25-17.97-18.51-26.95-27.76Z"/>
    <path class="cls-1" d="M171.14,65.98c9.12,9.25,18.24,18.51,27.36,27.76-9.25,9.25-18.51,18.51-27.76,27.76-5.63-5.63-11.26-11.26-16.9-16.9,3.35-3.75,6.7-7.51,10.06-11.26-3.22-3.35-6.44-6.7-9.66-10.06,5.63-5.77,11.26-11.53,16.9-17.3Z"/>
  </g>
</svg>